HIERARCHY
ROOT Hips
{
	OFFSET 0.000000 0.000000 0.000000
	CHANNELS 6 Xposition Yposition Zposition Xrotation Yrotation Zrotation
	JOINT LeftUpLeg_virtual
	{
		OFFSET 0.000000 0.000000 0.000000
		CHANNELS 3 Xrotation Yrotation Zrotation
		JOINT LeftUpLeg
		{
			OFFSET 13.026900 -6.336304 -1.092800
			CHANNELS 3 Xrotation Yrotation Zrotation
			JOINT LeftLeg
			{
				OFFSET 0.524474 -46.096886 9.782700
				CHANNELS 3 Xrotation Yrotation Zrotation
				JOINT LeftFoot
				{
					OFFSET -0.524474 -53.427422 -12.948200
					CHANNELS 3 Xrotation Yrotation Zrotation
					JOINT LeftToeBase
					{
						OFFSET 0.192200 -14.009700 16.364100
						CHANNELS 3 Xrotation Yrotation Zrotation
						JOINT LeftToe_End
						{
							OFFSET -1.784700 -0.561700 9.474800
							CHANNELS 3 Xrotation Yrotation Zrotation
							End Site
							{
								OFFSET 0 0 0
							}
						}
					}
				}
			}
		}
	}
	JOINT RightUpLeg_virtual
	{
		OFFSET 0.000000 0.000000 0.000000
		CHANNELS 3 Xrotation Yrotation Zrotation
		JOINT RightUpLeg
		{
			OFFSET -12.883000 -6.336304 -1.092800
			CHANNELS 3 Xrotation Yrotation Zrotation
			JOINT RightLeg
			{
				OFFSET -0.524587 -46.096825 9.782800
				CHANNELS 3 Xrotation Yrotation Zrotation
				JOINT RightFoot
				{
					OFFSET 0.524587 -53.427383 -12.948300
					CHANNELS 3 Xrotation Yrotation Zrotation
					JOINT RightToeBase
					{
						OFFSET -0.192200 -14.009700 16.364100
						CHANNELS 3 Xrotation Yrotation Zrotation
						JOINT RightToe_End
						{
							OFFSET 1.784700 -0.561700 9.474800
							CHANNELS 3 Xrotation Yrotation Zrotation
							End Site
							{
								OFFSET 0 0 0
							}
						}
					}
				}
			}
		}
	}
	JOINT Spine_virtual
	{
		OFFSET 0.000000 0.000000 0.000000
		CHANNELS 3 Xrotation Yrotation Zrotation
		JOINT Spine
		{
			OFFSET 0.072000 7.257294 -0.789700
			CHANNELS 3 Xrotation Yrotation Zrotation
			JOINT Spine1
			{
				OFFSET 0.000000 12.508769 -0.658067
				CHANNELS 3 Xrotation Yrotation Zrotation
				JOINT Spine1_split
				{
					OFFSET 0.000000 12.508769 -0.658067
					CHANNELS 3 Xrotation Yrotation Zrotation
					JOINT Spine2
					{
						OFFSET 0.000000 12.508769 -0.658067
						CHANNELS 3 Xrotation Yrotation Zrotation
						JOINT Neck_virtual
						{
							OFFSET 0.000000 0.000000 0.000000
							CHANNELS 3 Xrotation Yrotation Zrotation
							JOINT Neck
							{
								OFFSET 0.000000 14.033295 7.520400
								CHANNELS 3 Xrotation Yrotation Zrotation
								JOINT Head
								{
									OFFSET 0.000000 8.198502 5.703100
									CHANNELS 3 Xrotation Yrotation Zrotation
									JOINT HeadTop_End
									{
										OFFSET 0.000000 17.760803 13.332701
										CHANNELS 3 Xrotation Yrotation Zrotation
										End Site
										{
											OFFSET 0 0 0
										}
									}
								}
							}
						}
						JOINT LeftShoulder_virtual
						{
							OFFSET 0.000000 0.000000 0.000000
							CHANNELS 3 Xrotation Yrotation Zrotation
							JOINT LeftShoulder
							{
								OFFSET 6.292450 5.785301 -0.669000
								CHANNELS 3 Xrotation Yrotation Zrotation
								JOINT LeftShoulder_split
								{
									OFFSET 6.292450 5.785301 -0.669000
									CHANNELS 3 Xrotation Yrotation Zrotation
									JOINT LeftArm
									{
										OFFSET 13.907140 -6.093903 1.965100
										CHANNELS 3 Xrotation Yrotation Zrotation
										JOINT LeftForeArm
										{
											OFFSET 34.140198 0.000000 0.000000
											CHANNELS 3 Xrotation Yrotation Zrotation
											JOINT LeftHand
											{
												OFFSET 40.960209 0.000000 0.000000
												CHANNELS 3 Xrotation Yrotation Zrotation
												End Site
												{
													OFFSET 0 0 0
												}
											}
										}
									}
								}
							}
						}
						JOINT RightShoulder_virtual
						{
							OFFSET 0.000000 0.000000 0.000000
							CHANNELS 3 Xrotation Yrotation Zrotation
							JOINT RightShoulder
							{
								OFFSET -6.292450 5.785301 -0.669000
								CHANNELS 3 Xrotation Yrotation Zrotation
								JOINT RightShoulder_split
								{
									OFFSET -6.292450 5.785301 -0.669000
									CHANNELS 3 Xrotation Yrotation Zrotation
									JOINT RightArm
									{
										OFFSET -13.907140 -6.093903 1.965100
										CHANNELS 3 Xrotation Yrotation Zrotation
										JOINT RightForeArm
										{
											OFFSET -34.140198 0.000000 0.000000
											CHANNELS 3 Xrotation Yrotation Zrotation
											JOINT RightHand
											{
												OFFSET -40.960209 0.000000 0.000000
												CHANNELS 3 Xrotation Yrotation Zrotation
												End Site
												{
													OFFSET 0 0 0
												}
											}
										}
									}
								}
							}
						}
					}
				}
			}
		}
	}
}
MOTION
Frames: 7
Frame Time: 0.03333333
1.948336 102.740990 13.697182 0.000000 0.000000 0.000000 5.815126 -13.223601 0.056938 -75.050890 -10.206605 4.351376 105.587512 11.816775 -3.845386 31.454776 -16.169677 6.641988 12.826001 -5.113694 -0.806675 0.000000 0.000000 0.000000 0.988069 -14.493993 -0.105681 5.683944 -5.284242 -2.297312 13.183431 8.912150 1.333273 20.539892 -3.761620 -17.091944 -37.157851 5.819404 10.443360 0.000000 0.000000 0.000000 6.046635 -9.148415 2.588317 1.822246 4.563046 2.542971 10.379483 2.958399 -1.209472 -0.025660 9.857204 -2.872110 0.000000 0.000000 0.000000 9.458231 1.803136 -0.847043 8.448957 -2.117320 -7.737787 -14.775116 2.958890 -11.516002 0.000000 0.000000 0.000000 8.510805 2.833437 -0.781538 0.029890 -12.191440 -8.354062 -0.753283 -5.711292 -6.134474 24.153465 2.378670 -46.388866 95.904810 -82.559324 80.246752 0.000000 0.000000 0.000000 11.459834 3.236017 -0.787630 0.483625 3.924611 4.316988 8.992441 8.273347 3.793645 -5.096760 -7.723388 60.017542 -96.328309 76.650152 90.207087 0.000000 0.000000 0.000000 
0.729114 101.910088 27.739931 0.000000 0.000000 0.000000 3.402682 -16.392143 1.285222 -77.077688 -8.395307 5.627852 93.323415 13.340492 -3.202578 29.730376 -14.758294 7.850655 13.237085 -4.937010 0.019916 0.000000 0.000000 0.000000 0.233720 -20.398789 1.638904 5.958030 -5.169658 -3.873307 16.743459 9.327326 2.041884 25.088876 -3.519215 -14.040831 -37.354267 5.684688 11.123137 0.000000 0.000000 0.000000 5.139336 -9.366699 3.179639 2.007692 4.931240 1.417142 10.108199 2.797750 -1.581988 0.673396 10.371121 -2.175249 0.000000 0.000000 0.000000 8.970780 1.885129 -1.041889 8.307443 -2.502720 -7.935235 -14.140671 3.533878 -10.796562 0.000000 0.000000 0.000000 8.338035 3.073022 -0.991557 0.496522 -10.635390 -6.875872 -2.228981 -4.603895 -6.885594 30.396917 8.382959 -46.860903 55.534957 -80.337245 40.057161 0.000000 0.000000 0.000000 10.978937 3.239227 -1.311809 0.378655 3.895604 2.942822 7.370653 3.887014 0.325796 -8.215428 -10.362427 56.223518 -126.005966 74.854666 119.774102 0.000000 0.000000 0.000000 
0.120623 99.431335 47.384277 0.000000 0.000000 0.000000 1.124501 -20.216421 5.248477 -75.814710 -8.970184 5.502560 74.457709 14.344775 0.173312 27.483372 -12.462169 6.843265 11.375864 -4.693403 1.646152 0.000000 0.000000 0.000000 -1.644719 -26.038648 5.617436 5.399953 -3.189082 -5.967503 23.112013 10.509056 3.045384 35.668651 -2.136759 -6.695290 -36.342149 5.016032 12.502709 0.000000 0.000000 0.000000 2.900619 -11.863137 6.332930 2.966762 5.382703 -1.072352 10.137309 2.764883 -2.862994 0.526404 8.778946 -0.412550 0.000000 0.000000 0.000000 8.766490 2.218563 -2.286789 8.864488 -3.080700 -7.994971 -12.863957 2.521233 -9.218461 0.000000 0.000000 0.000000 8.714306 3.512613 -2.373140 0.806490 -8.141459 -4.733463 -3.741917 -4.473161 -5.494616 35.440711 16.105190 -49.744176 33.038451 -71.348006 16.890809 0.000000 0.000000 0.000000 10.877104 3.528479 -2.985128 0.570642 4.163717 0.129780 6.211083 0.376247 -0.315697 -8.810300 -15.077231 49.670413 -145.769706 68.885101 140.179743 0.000000 0.000000 0.000000 
0.152255 94.509048 70.109108 0.000000 0.000000 0.000000 -0.427251 -24.517422 11.038906 -72.504978 -11.666144 3.885444 54.563919 13.113810 5.391461 27.099950 -9.556602 4.316445 7.478866 -4.502674 3.847826 0.000000 0.000000 0.000000 -2.567555 -31.223984 11.495926 3.640361 0.434111 -7.328215 29.862321 12.206423 3.883354 46.057639 0.891961 0.557033 -31.963783 4.471635 13.959071 0.000000 0.000000 0.000000 -0.297909 -16.541854 11.351785 4.285262 5.612991 -4.229743 10.450308 2.723324 -4.603342 0.359584 5.467589 0.997784 0.000000 0.000000 0.000000 8.857861 2.593796 -4.185414 9.890391 -3.420973 -8.512983 -11.274651 0.697337 -7.527281 0.000000 0.000000 0.000000 9.412913 3.861973 -4.404208 0.887735 -5.109633 -2.758156 -4.281468 -5.708490 -4.099301 38.715715 23.415299 -54.116548 27.230883 -60.177942 9.592323 0.000000 0.000000 0.000000 11.171123 3.768725 -5.329487 0.926645 4.769078 -2.562997 6.438862 -1.111802 1.484602 -5.314402 -20.129671 43.051434 -154.401562 62.718185 150.291196 0.000000 0.000000 0.000000 
1.078769 87.075882 94.439270 0.000000 0.000000 0.000000 -1.072107 -28.859964 17.532336 -69.413088 -14.584339 1.485636 39.001408 9.757670 10.325906 28.650898 -6.498583 1.943884 3.028836 -4.347237 5.820967 0.000000 0.000000 0.000000 -2.389036 -35.574583 17.747838 -1.264732 4.425960 -6.725490 38.399006 13.330642 4.395213 53.067674 3.514701 5.134556 -21.449197 4.829287 14.862055 0.000000 0.000000 0.000000 -2.542285 -22.567420 17.612770 5.605434 5.449971 -7.242678 11.063347 2.467809 -6.364392 0.038529 2.733273 1.480724 0.000000 0.000000 0.000000 9.025812 2.689887 -6.178341 11.095297 -3.117490 -10.075227 -9.753605 -0.787789 -6.563248 0.000000 0.000000 0.000000 10.219116 3.883265 -6.494591 0.808230 -2.384841 -1.944345 -2.882580 -7.059712 -2.763742 40.191008 28.270474 -59.316088 27.126713 -49.795658 6.957731 0.000000 0.000000 0.000000 11.846416 3.706839 -7.592063 1.385763 5.926545 -3.762712 7.221337 -1.008792 3.671237 2.003396 -23.664679 39.088517 -157.838377 59.664134 156.008419 0.000000 0.000000 0.000000 
2.858442 77.378799 119.570389 0.000000 0.000000 0.000000 -0.502977 -33.924522 24.018755 -67.360091 -16.370147 -1.191801 29.874800 5.491636 13.874401 31.191288 -3.556210 0.868912 -0.894175 -3.964236 6.684684 0.000000 0.000000 0.000000 -2.119278 -40.069257 24.208852 -11.653811 7.119935 -4.014133 50.893283 14.132215 4.456471 57.299263 5.735243 8.528079 -6.871189 5.750759 14.464971 0.000000 0.000000 0.000000 -3.458682 -29.253314 24.350420 6.736370 4.597956 -9.767013 11.951899 1.753004 -7.734655 -0.302625 0.610466 1.760141 0.000000 0.000000 0.000000 9.196344 2.262773 -7.717654 12.017658 -1.939636 -12.934794 -8.349730 -0.666545 -7.019908 0.000000 0.000000 0.000000 11.078659 3.305735 -8.111265 0.681641 -0.357799 -2.945100 -0.649442 -8.614792 -2.725717 39.716952 28.950996 -63.336050 29.128458 -41.037880 5.482269 0.000000 0.000000 0.000000 12.856264 3.151038 -9.185892 1.911486 7.637387 -2.911947 7.166573 -0.711233 5.606793 11.515461 -24.284767 39.409423 -159.358791 61.260636 160.359455 0.000000 0.000000 0.000000 
4.941964 66.412750 144.436951 0.000000 0.000000 0.000000 0.806592 -39.872534 30.871089 -66.905316 -16.306337 -3.678001 25.758643 1.225562 15.884215 33.486597 -1.759412 0.491745 -2.744076 -3.007130 5.828065 0.000000 0.000000 0.000000 -2.072800 -43.931244 30.887198 -27.761142 6.513020 -0.686052 67.455665 15.460644 3.501873 59.504519 9.603500 13.552678 4.612450 5.744991 12.246486 0.000000 0.000000 0.000000 -3.013916 -35.628896 31.097530 7.661170 3.111060 -11.604895 13.032660 0.396142 -8.457611 -0.280323 -0.591035 1.109039 0.000000 0.000000 0.000000 9.443276 1.060205 -8.524109 12.293601 0.005650 -16.967049 -7.036347 1.417964 -9.057744 0.000000 0.000000 0.000000 11.962461 1.957687 -8.928803 0.539893 0.463636 -5.996617 0.676722 -9.365339 -4.378597 36.181100 25.262466 -64.406648 31.384163 -32.737114 3.722485 0.000000 0.000000 0.000000 14.024239 1.941826 -9.873923 2.219274 9.158792 -0.183688 6.326172 -0.394995 6.426224 19.102161 -21.590942 42.209456 -161.779205 67.486094 165.396623 0.000000 0.000000 0.000000 
